Ang.Darling.Kong.Aswang[2009]DvDrip.H264-Gangmie

General
Complete name                    : Ang.Darling.Kong.Aswang[2009]DvDrip.H.264-Gangmie.mp4
Format                           : MPEG-4
Format profile                   : Base Media / Version 2
Codec ID                         : mp42
File size                        : 572 MiB
Duration                         : 1h 57mn
Overall bit rate                 : 680 Kbps
Encoded date                     : UTC 2010-03-23 12:34:27
Tagged date                      : UTC 2010-03-23 15:16:47


Video
ID                               : 1
Format                           : AVC
Format/Info                      : Advanced Video Codec
Format profile                   : High@L3.0
Format settings, CABAC           : Yes
Format settings, ReFrames        : 10 frames
Codec ID                         : avc1
Codec ID/Info                    : Advanced Video Coding
Duration                         : 1h 57mn
Bit rate mode                    : Variable
Bit rate                         : 612 Kbps
Nominal bit rate                 : 765 Kbps
Width                            : 608 pixels
Height                           : 336 pixels
Display aspect ratio             : 16:9
Frame rate mode                  : Variable
Frame rate                       : 24.088 fps
Minimum frame rate               : 14.985 fps
Maximum frame rate               : 29.970 fps
Original frame rate              : 29.970 fps
Resolution                       : 8 bits
Colorimetry                      : 4:2:0
Scan type                        : Progressive
Bits/(Pixel*Frame)               : 0.124
Stream size                      : 514 MiB (90%)
Writing library                  : x264 core 79
Encoding settings                : cabac=1 / ref=10 / deblock=1:0:0 / analyse=0x3:0x113 / me=hex / subme=7 / psy=1 / psy_rd=1.0:0.0 / mixed_ref=1 / me_range=16 / chroma_me=1 / trellis=1 / 8x8dct=1 / cqm=0 / deadzone=21,11 / chroma_qp_offset=-2 / threads=3 / nr=0 / decimate=1 / mbaff=0 / constrained_intra=0 / bframes=10 / b_pyramid=0 / b_adapt=2 / b_bias=0 / direct=1 / wpredb=1 / wpredp=2 / keyint=300 / keyint_min=30 / scenecut=40 / rc_lookahead=50 / rc=abr / mbtree=1 / bitrate=765 / ratetol=1.0 / qcomp=0.60 / qpmin=10 / qpmax=51 / qpstep=4 / ip_ratio=1.40 / aq=1:1.00
Encoded date                     : UTC 2010-03-23 12:34:27
Tagged date                      : UTC 2010-03-23 15:16:47
Color primaries                  : BT.601-6 525, BT.1358 525, BT.1700 NTSC, SMPTE 170M
Transfer characteristics         : BT.709-5, BT.1361
Matrix coefficients              : BT.601-6 525, BT.1358 525, BT.1700 NTSC, SMPTE 170M

Audio
ID                               : 2
Format                           : AAC
Format/Info                      : Advanced Audio Codec
Format version                   : Version 4
Format profile                   : LC
Format settings, SBR             : No
Codec ID                         : 40
Duration                         : 1h 57mn
Bit rate mode                    : Variable
Bit rate                         : 64.2 Kbps
Maximum bit rate                 : 79.8 Kbps
Channel(s)                       : 2 channels
Channel positions                : L R
Sampling rate                    : 48.0 KHz
Stream size                      : 54.0 MiB (9%)
Language                         : Tagalog
Encoded date                     : UTC 2010-03-23 12:34:27
Tagged date                      : UTC 2010-03-23 15:16:47


Subtitle: English

Screenshot
 
http://www.postimg.com/image/13000/12541.jpg
http://www.postimg.com/image/13000/12542.jpg
http://www.postimg.com/image/13000/12543.jpg
http://www.postimg.com/image/13000/12544.jpg
http://www.postimg.com/image/13000/12545.jpg
